<svg id="svg" version="1.1" xmlns="http://www.w3.org/2000/svg" xmlns:xlink="http://www.w3.org/1999/xlink" width="400" height="400" viewBox="0, 0, 400,400"><g id="svgg"><path id="path0" d="M153.005 60.591 C 148.766 62.133,148.764 63.702,152.968 89.600 C 153.736 94.330,154.905 101.980,155.565 106.600 C 156.225 111.220,157.596 120.490,158.611 127.200 C 159.626 133.910,160.794 141.758,161.207 144.640 C 163.214 158.641,165.415 161.752,175.524 164.876 C 183.253 167.264,185.378 167.478,192.881 166.622 C 197.728 166.069,199.416 166.031,202.481 166.402 C 212.213 167.581,213.020 167.519,223.000 164.839 C 232.014 162.419,233.778 159.148,236.802 139.245 C 237.692 133.390,239.049 124.460,239.818 119.400 C 240.588 114.340,241.494 108.310,241.832 106.000 C 242.170 103.690,243.055 97.930,243.800 93.200 C 248.561 62.940,248.555 61.764,243.640 60.407 C 237.861 58.811,219.421 66.432,207.941 75.159 C 199.771 81.371,197.678 81.374,189.415 75.190 C 176.510 65.534,158.866 58.459,153.005 60.591 M131.000 82.771 C 124.998 84.220,124.889 86.847,129.906 109.000 C 131.899 117.800,134.108 127.700,134.814 131.000 C 135.520 134.300,136.812 140.150,137.686 144.000 C 138.559 147.850,139.892 154.060,140.648 157.800 C 143.030 169.593,144.740 171.527,155.200 174.259 C 163.821 176.511,171.170 175.332,171.960 171.571 C 172.787 167.632,169.836 164.436,164.426 163.412 C 154.576 161.547,153.808 160.179,149.818 137.400 C 148.741 131.249,146.306 118.392,144.579 109.730 C 144.045 107.052,142.969 101.472,142.188 97.330 C 140.166 86.609,138.805 84.012,134.600 82.848 C 132.833 82.358,132.722 82.356,131.000 82.771 M262.972 82.791 C 258.033 83.909,257.055 86.023,254.207 101.722 C 253.218 107.179,251.515 116.179,250.423 121.722 C 249.332 127.265,247.796 135.220,247.010 139.400 C 244.331 153.646,243.965 155.334,243.126 157.284 C 241.541 160.967,238.096 162.869,231.983 163.434 C 229.149 163.696,226.769 164.303,226.907 164.728 C 226.955 164.878,226.584 165.663,226.082 166.472 C 221.638 173.638,229.776 177.368,242.564 174.027 C 252.714 171.375,254.886 168.335,257.591 153.000 C 258.057 150.360,259.679 142.890,261.195 136.400 C 262.712 129.910,264.607 121.360,265.407 117.400 C 266.207 113.440,267.770 106.420,268.881 101.800 C 271.336 91.584,271.648 88.109,270.316 85.800 C 268.973 83.472,265.768 82.159,262.972 82.791 M116.388 118.900 C 111.321 121.460,111.374 123.667,116.932 141.600 C 118.807 147.650,122.342 159.139,124.788 167.131 C 132.920 193.707,132.199 193.009,148.198 189.796 C 162.369 186.951,165.440 184.401,160.294 179.751 L 158.673 178.288 151.948 178.567 C 141.497 179.002,140.499 178.259,138.159 168.304 C 136.831 162.654,134.051 152.610,130.823 141.800 C 129.903 138.720,128.523 133.770,127.756 130.800 C 124.813 119.403,121.747 116.193,116.388 118.900 M276.000 118.449 C 272.624 119.796,271.306 122.975,266.399 141.600 C 265.268 145.890,263.657 151.650,262.817 154.400 C 261.978 157.150,260.541 162.438,259.624 166.151 C 256.616 178.330,256.265 178.656,246.349 178.484 C 238.740 178.353,237.353 178.674,236.010 180.876 C 233.336 185.262,235.593 186.867,248.507 189.765 C 259.206 192.166,261.159 192.105,264.137 189.279 C 266.368 187.161,265.954 188.392,283.024 133.044 C 285.297 125.674,285.306 123.060,283.066 120.508 C 281.080 118.247,278.438 117.477,276.000 118.449 M96.442 159.922 C 95.700 161.309,95.212 170.167,95.615 174.936 C 100.451 232.130,154.440 275.220,212.028 267.848 C 255.142 262.329,292.285 227.426,300.384 184.820 C 302.521 173.579,302.114 159.600,299.650 159.600 C 299.352 159.600,298.127 163.052,296.599 168.200 C 287.306 199.496,270.391 221.066,245.200 233.743 C 227.626 242.588,222.235 240.165,228.943 226.436 C 235.030 213.977,234.964 202.695,228.733 190.719 C 222.195 178.152,202.374 170.277,189.017 174.939 C 165.771 183.053,157.515 204.666,168.850 227.729 C 171.583 233.289,171.920 234.621,171.029 236.345 C 168.027 242.150,154.175 237.129,136.394 223.790 C 120.278 211.701,108.037 192.531,100.768 168.000 C 98.139 159.126,97.503 157.939,96.442 159.922 M192.541 329.542 C 190.206 331.018,189.927 334.491,192.052 335.628 C 195.485 337.465,206.367 333.370,204.388 330.985 C 202.670 328.916,195.009 327.983,192.541 329.542 " stroke="none" fill="#8dc155" fill-rule="evenodd"></path><path id="path1" d="M0.000 200.000 L 0.000 400.000 200.000 400.000 L 400.000 400.000 400.000 200.000 L 400.000 0.000 200.000 0.000 L 0.000 0.000 0.000 200.000 M162.400 61.482 C 171.466 63.952,180.568 68.570,189.415 75.190 C 197.678 81.374,199.771 81.371,207.941 75.159 C 219.421 66.432,237.861 58.811,243.640 60.407 C 248.555 61.764,248.561 62.940,243.800 93.200 C 243.055 97.930,242.170 103.690,241.832 106.000 C 241.494 108.310,240.588 114.340,239.818 119.400 C 239.049 124.460,237.692 133.390,236.802 139.245 C 233.778 159.148,232.014 162.419,223.000 164.839 C 213.020 167.519,212.213 167.581,202.481 166.402 C 199.416 166.031,197.728 166.069,192.881 166.622 C 185.378 167.478,183.253 167.264,175.524 164.876 C 165.415 161.752,163.214 158.641,161.207 144.640 C 160.794 141.758,159.626 133.910,158.611 127.200 C 157.596 120.490,156.225 111.220,155.565 106.600 C 154.905 101.980,153.736 94.330,152.968 89.600 C 149.880 70.578,149.376 66.224,149.999 63.982 C 151.139 59.878,154.225 59.256,162.400 61.482 M134.600 82.848 C 138.805 84.012,140.166 86.609,142.188 97.330 C 142.969 101.472,144.045 107.052,144.579 109.730 C 146.306 118.392,148.741 131.249,149.818 137.400 C 153.808 160.179,154.576 161.547,164.426 163.412 C 169.836 164.436,172.787 167.632,171.960 171.571 C 171.170 175.332,163.821 176.511,155.200 174.259 C 144.740 171.527,143.030 169.593,140.648 157.800 C 139.892 154.060,138.559 147.850,137.686 144.000 C 136.812 140.150,135.520 134.300,134.814 131.000 C 134.108 127.700,131.899 117.800,129.906 109.000 C 124.889 86.847,124.998 84.220,131.000 82.771 C 132.722 82.356,132.833 82.358,134.600 82.848 M267.996 83.545 C 271.800 85.330,271.975 88.927,268.881 101.800 C 267.770 106.420,266.207 113.440,265.407 117.400 C 264.607 121.360,262.712 129.910,261.195 136.400 C 259.679 142.890,258.057 150.360,257.591 153.000 C 254.886 168.335,252.714 171.375,242.564 174.027 C 229.776 177.368,221.638 173.638,226.082 166.472 C 226.584 165.663,226.955 164.878,226.907 164.728 C 226.769 164.303,229.149 163.696,231.983 163.434 C 238.096 162.869,241.541 160.967,243.126 157.284 C 243.965 155.334,244.331 153.646,247.010 139.400 C 247.796 135.220,249.332 127.265,250.423 121.722 C 251.515 116.179,253.218 107.179,254.207 101.722 C 255.197 96.265,256.286 90.835,256.628 89.655 C 258.371 83.630,262.943 81.173,267.996 83.545 M121.313 118.548 C 124.116 119.743,125.659 122.677,127.756 130.800 C 128.523 133.770,129.903 138.720,130.823 141.800 C 134.051 152.610,136.831 162.654,138.159 168.304 C 140.499 178.259,141.497 179.002,151.948 178.567 L 158.673 178.288 160.294 179.751 C 165.440 184.401,162.369 186.951,148.198 189.796 C 132.199 193.009,132.920 193.707,124.788 167.131 C 122.342 159.139,118.807 147.650,116.932 141.600 C 113.066 129.124,112.324 126.041,112.667 123.878 C 113.323 119.756,117.747 117.029,121.313 118.548 M280.519 118.540 C 285.055 120.435,285.722 124.298,283.024 133.044 C 265.954 188.392,266.368 187.161,264.137 189.279 C 261.159 192.105,259.206 192.166,248.507 189.765 C 235.593 186.867,233.336 185.262,236.010 180.876 C 237.353 178.674,238.740 178.353,246.349 178.484 C 256.265 178.656,256.616 178.330,259.624 166.151 C 260.541 162.438,261.978 157.150,262.817 154.400 C 263.657 151.650,265.268 145.890,266.399 141.600 C 272.289 119.244,274.308 115.945,280.519 118.540 M98.993 162.200 C 99.481 163.740,100.279 166.350,100.768 168.000 C 109.772 198.387,125.011 218.609,149.200 232.271 C 161.976 239.487,168.750 240.751,171.029 236.345 C 171.920 234.621,171.583 233.289,168.850 227.729 C 160.484 210.707,162.497 194.647,174.390 183.539 C 188.636 170.232,208.815 170.327,223.063 183.768 C 234.342 194.408,236.597 210.771,228.943 226.436 C 222.235 240.165,227.626 242.588,245.200 233.743 C 270.391 221.066,287.306 199.496,296.599 168.200 C 298.127 163.052,299.352 159.600,299.650 159.600 C 302.114 159.600,302.521 173.579,300.384 184.820 C 292.285 227.426,255.142 262.329,212.028 267.848 C 158.999 274.636,108.184 238.578,97.249 186.400 C 94.055 171.161,95.497 151.155,98.993 162.200 M202.629 329.710 C 205.884 331.398,205.396 332.989,201.136 334.571 C 193.984 337.226,189.427 335.961,190.829 331.711 C 191.772 328.855,198.712 327.677,202.629 329.710 " stroke="none" fill="#fbfbfb" fill-rule="evenodd"></path></g></svg>